<svg width="26" height="26" viewBox="0 0 26 26" fill="none" xmlns="http://www.w3.org/2000/svg">
<g clip-path="url(#clip0)">
<path d="M25.6926 0.307864C25.2825 -0.102296 24.6175 -0.102296 24.2073 0.307864L0.307864 24.2073C-0.102296 24.6175 -0.102296 25.2824 0.307864 25.6926C0.512919 25.8978 0.781755 26.0002 1.05054 26.0002C1.31933 26.0002 1.58811 25.8977 1.79322 25.6925L25.6926 1.79311C26.1028 1.383 26.1028 0.718024 25.6926 0.307864Z" fill="#34363B"/>
<path d="M25.6924 24.2073L1.79287 0.307864C1.38276 -0.102296 0.71773 -0.102296 0.30762 0.307864C-0.10254 0.717974 -0.10254 1.38295 0.30762 1.79311L24.2071 25.6926C24.4122 25.8977 24.681 26.0002 24.9498 26.0002C25.2186 26.0002 25.4874 25.8977 25.6924 25.6927C26.1025 25.2824 26.1025 24.6175 25.6924 24.2073Z" fill="#34363B"/>
</g>
<defs>
<clipPath id="clip0">
<rect width="26" height="26" fill="white"/>
</clipPath>
</defs>
</svg>
