<svg width="26" height="26" viewBox="0 0 26 26" fill="none" xmlns="http://www.w3.org/2000/svg">
<path d="M24.9497 11.9497H1.05026C0.470234 11.9497 0 12.4199 0 13C0 13.58 0.470234 14.0502 1.05026 14.0502H24.9497C25.5298 14.0502 26 13.58 26 13C26 12.4199 25.5298 11.9497 24.9497 11.9497Z" fill="white"/>
<path d="M24.9497 3.98315H1.05026C0.470234 3.98315 0 4.45339 0 5.03341C0 5.61344 0.470234 6.08367 1.05026 6.08367H24.9497C25.5298 6.08367 26 5.61344 26 5.03341C26 4.45339 25.5298 3.98315 24.9497 3.98315Z" fill="white"/>
<path d="M24.9497 19.9163H1.05026C0.470234 19.9163 0 20.3864 0 20.9665C0 21.5466 0.470234 22.0168 1.05026 22.0168H24.9497C25.5298 22.0168 26 21.5466 26 20.9665C26 20.3864 25.5298 19.9163 24.9497 19.9163Z" fill="white"/>
</svg>
