<svg width="24" height="24" viewBox="0 0 24 24" fill="none" xmlns="http://www.w3.org/2000/svg">
<g clip-path="url(#clip0)">
<path d="M17.3469 2.97628C15.4276 1.05698 12.8759 0 10.1616 0C7.44731 0 4.89553 1.05698 2.97628 2.97628C1.05698 4.89553 0 7.44731 0 10.1616C0 12.8759 1.05698 15.4276 2.97628 17.3469C4.89553 19.2661 7.44736 20.3232 10.1616 20.3232C12.8759 20.3232 15.4276 19.2661 17.3469 17.3469C19.2662 15.4276 20.3232 12.8759 20.3232 10.1616C20.3232 7.44731 19.2662 4.89553 17.3469 2.97628ZM10.1616 18.3842C5.62758 18.3842 1.93894 14.6955 1.93894 10.1616C1.93894 5.62758 5.62763 1.93894 10.1616 1.93894C14.6956 1.93894 18.3842 5.62758 18.3842 10.1616C18.3842 14.6955 14.6955 18.3842 10.1616 18.3842Z" fill="white"/>
<path d="M23.7162 22.3449L17.343 15.9717C16.9643 15.5931 16.3505 15.5931 15.9719 15.9717C15.5933 16.3503 15.5933 16.9641 15.9719 17.3428L22.3451 23.7159C22.5344 23.9053 22.7825 23.9999 23.0306 23.9999C23.2787 23.9999 23.5269 23.9053 23.7162 23.7159C24.0947 23.3373 24.0947 22.7235 23.7162 22.3449Z" fill="white"/>
</g>
<defs>
<clipPath id="clip0">
<rect width="24" height="24" fill="white"/>
</clipPath>
</defs>
</svg>
